<svg width="337" height="541" viewBox="0 0 337 541" fill="none" xmlns="http://www.w3.org/2000/svg"><path d="M304.483 204.333h-68.167c-20.078 0-36.355-16.277-36.355-36.355 0-17.569-14.243-31.811-31.811-31.811-17.569 0-31.812 14.242-31.812 31.811 0 20.078-16.276 36.355-36.355 36.355-17.569 0-31.811 14.242-31.811 31.811s14.242 31.811 31.81 31.811h204.501c17.568 0 31.811-14.242 31.811-31.811s-14.243-31.811-31.811-31.811M199.955 370.206v-63.622c0-18.824-15.26-34.084-34.083-34.084H102.25c-18.824 0-34.084 15.26-34.084 34.084v63.622c0 18.823 15.26 34.083 34.084 34.083h63.622c18.823 0 34.083-15.26 34.083-34.083" fill="#F2EBE8"/><path d="M31.813 68h56.805c23.843 0 43.172 19.329 43.172 43.172v56.806c0 17.569-14.242 31.811-31.81 31.811s-31.81-14.243-31.81-31.811c-.001-20.078-16.278-36.356-36.357-36.356-17.569 0-31.811-14.242-31.811-31.81C.002 82.241 14.244 68 31.813 68M136.1 99.977l-.001-56.805C136.099 19.33 155.428 0 179.272 0h56.806c17.568 0 31.81 14.242 31.81 31.81s-14.242 31.81-31.81 31.81c-20.079.001-36.356 16.279-36.356 36.357 0 17.569-14.243 31.811-31.811 31.811-17.569 0-31.811-14.242-31.811-31.81M31.811 404.289c17.569 0 31.811-14.242 31.811-31.811s-14.242-31.811-31.81-31.811C14.241 340.667 0 354.909 0 372.478s14.242 31.811 31.811 31.811m203.932 136.332c17.569 0 31.811-14.242 31.811-31.811s-14.242-31.811-31.811-31.811-31.811 14.242-31.811 31.811 14.242 31.811 31.811 31.811m-67.596-68.166H304.48c17.569 0 31.811-14.242 31.811-31.811 0-17.552-14.417-31.811-32.002-31.811-19.869 0-36.164-16.296-36.164-36.164 0-17.585-14.259-32.002-31.811-32.002-17.553 0-31.811 14.417-31.811 32.002 0 19.868-16.296 36.164-36.164 36.164-17.586 0-32.003 14.259-32.003 31.811 0 17.569 14.242 31.811 31.811 31.811" fill="#F2EBE8"/></svg>