<svg width="337" height="541" viewBox="0 0 337 541" fill="none" xmlns="http://www.w3.org/2000/svg"><path d="M304.475 472.455c17.569 0 31.811-14.243 31.811-31.811 0-17.569-14.242-31.811-31.811-31.811s-31.811 14.242-31.811 31.811 14.242 31.811 31.811 31.811M100.261 336.122h-68.45C14.242 336.122 0 321.88 0 304.311S14.242 272.5 31.811 272.5c20.079 0 36.356-16.277 36.356-36.355 0-17.569 14.242-31.811 31.81-31.811 17.569 0 31.812 14.242 31.812 31.811v68.45c0 17.412-14.116 31.527-31.528 31.527" fill="#F2EBE8"/><path d="M224.946 267.954H168.14c-17.569 0-31.811-14.243-31.811-31.811 0-20.079-16.277-36.356-36.356-36.356-17.568 0-31.81-14.242-31.81-31.811s14.242-31.81 31.81-31.81h124.974c23.843 0 43.172 19.329 43.172 43.172v45.444c0 23.843-19.329 43.172-43.173 43.172M68.163 373.029v135.785c0 17.569 14.242 31.811 31.811 31.811s31.811-14.243 31.811-31.812c0-20.079 16.277-36.358 36.356-36.358 17.569 0 31.811-14.243 31.812-31.812.001-20.077 16.277-36.355 36.355-36.355 17.569 0 31.811-14.242 31.811-31.811 0-17.545-14.496-31.811-32.088-31.811-19.775 0-36.077-16.304-36.077-36.078 0-17.592-14.266-32.088-31.811-32.088s-31.811 14.495-31.811 32.088c0 19.75-16.007 36.078-35.805 36.078-17.874 0-32.364 14.49-32.364 32.363" fill="#F2EBE8"/><path d="M236.311 336.121c17.569 0 31.811-14.243 31.811-31.811 0-17.569-14.242-31.811-31.811-31.811S204.5 286.741 204.5 304.31s14.242 31.811 31.811 31.811M272.664 99.81v68.167c0 17.569 14.242 31.812 31.811 31.812s31.811-14.242 31.811-31.811V99.811C336.287 82.243 322.044 68 304.475 68s-31.811 14.242-31.811 31.81" fill="#F2EBE8"/><path d="M272.664 99.81v68.167c0 17.569 14.242 31.812 31.811 31.812s31.811-14.242 31.811-31.811V99.811C336.287 82.243 322.044 68 304.475 68s-31.811 14.242-31.811 31.81m-205-68v68.167c0 17.569 14.242 31.812 31.81 31.812 17.569 0 31.812-14.242 31.812-31.811V31.81C131.287 14.243 117.044 0 99.476 0c-17.57 0-31.812 14.242-31.812 31.81m100.481 99.811c17.569 0 31.811-14.243 31.811-31.811 0-17.57-14.242-31.811-31.811-31.811s-31.811 14.242-31.811 31.81c0 17.569 14.242 31.812 31.811 31.812" fill="#F2EBE8"/></svg>