<svg width="1980" height="900" viewBox="0 0 1980 900" fill="none" xmlns="http://www.w3.org/2000/svg">
<mask id="path-1-inside-1_8703_8674" fill="white">
<path fill-rule="evenodd" clip-rule="evenodd" d="M900 360H820C764.772 360 720 404.772 720 460V540V630C720 679.706 760.294 720 810 720C859.706 720 900 760.294 900 810C900 859.706 940.294 900 990 900C1039.71 900 1080 859.706 1080 810C1080 760.294 1120.29 720 1170 720C1219.71 720 1260 679.706 1260 630C1260 580.294 1219.71 540 1170 540C1120.29 540 1080 499.706 1080 450C1080 400.294 1039.71 360 990 360H900Z"/>
</mask>
<path fill-rule="evenodd" clip-rule="evenodd" d="M900 360H820C764.772 360 720 404.772 720 460V540V630C720 679.706 760.294 720 810 720C859.706 720 900 760.294 900 810C900 859.706 940.294 900 990 900C1039.71 900 1080 859.706 1080 810C1080 760.294 1120.29 720 1170 720C1219.71 720 1260 679.706 1260 630C1260 580.294 1219.71 540 1170 540C1120.29 540 1080 499.706 1080 450C1080 400.294 1039.71 360 990 360H900Z" fill="#500085"/>
<path d="M820 362H900V358H820V362ZM722 540V460H718V540H722ZM722 630V540H718V630H722ZM900 362H990V358H900V362ZM1170 538C1121.4 538 1082 498.601 1082 450H1078C1078 500.81 1119.19 542 1170 542V538ZM1262 630C1262 579.19 1220.81 538 1170 538V542C1218.6 542 1258 581.399 1258 630H1262ZM1170 722C1220.81 722 1262 680.81 1262 630H1258C1258 678.601 1218.6 718 1170 718V722ZM1082 810C1082 761.399 1121.4 722 1170 722V718C1119.19 718 1078 759.19 1078 810H1082ZM990 902C1040.81 902 1082 860.81 1082 810H1078C1078 858.601 1038.6 898 990 898V902ZM810 722C858.601 722 898 761.399 898 810H902C902 759.19 860.81 718 810 718V722ZM718 630C718 680.81 759.19 722 810 722V718C761.399 718 722 678.601 722 630H718ZM898 810C898 860.81 939.19 902 990 902V898C941.399 898 902 858.601 902 810H898ZM1082 450C1082 399.19 1040.81 358 990 358V362C1038.6 362 1078 401.399 1078 450H1082ZM820 358C763.667 358 718 403.667 718 460H722C722 405.876 765.876 362 820 362V358Z" fill="#3E0066" mask="url(#path-1-inside-1_8703_8674)"/>
<mask id="path-3-inside-2_8703_8674" fill="white">
<path fill-rule="evenodd" clip-rule="evenodd" d="M1800 270C1800 319.706 1759.71 360 1710 360H1620H1530C1480.29 360 1440 319.706 1440 270C1440 220.294 1480.29 180 1530 180H1620H1710C1759.71 180 1800 220.294 1800 270Z"/>
</mask>
<path fill-rule="evenodd" clip-rule="evenodd" d="M1800 270C1800 319.706 1759.71 360 1710 360H1620H1530C1480.29 360 1440 319.706 1440 270C1440 220.294 1480.29 180 1530 180H1620H1710C1759.71 180 1800 220.294 1800 270Z" fill="#500085"/>
<path d="M1620 362H1710V358H1620V362ZM1620 358H1530V362H1620V358ZM1530 182H1620V178H1530V182ZM1710 178H1620V182H1710V178ZM1710 182C1758.6 182 1798 221.399 1798 270H1802C1802 219.19 1760.81 178 1710 178V182ZM1442 270C1442 221.399 1481.4 182 1530 182V178C1479.19 178 1438 219.19 1438 270H1442ZM1530 358C1481.4 358 1442 318.601 1442 270H1438C1438 320.81 1479.19 362 1530 362V358ZM1710 362C1760.81 362 1802 320.81 1802 270H1798C1798 318.601 1758.6 358 1710 358V362Z" fill="#3E0066" mask="url(#path-3-inside-2_8703_8674)"/>
<rect x="1441" y="361" width="178" height="178" rx="89" fill="#500085" stroke="#3E0066" stroke-width="2"/>
<mask id="path-6-inside-3_8703_8674" fill="white">
<path fill-rule="evenodd" clip-rule="evenodd" d="M1800 630C1800 679.706 1759.71 720 1710 720C1660.29 720 1620 679.706 1620 630V540V450C1620 400.294 1660.29 360 1710 360C1759.71 360 1800 400.294 1800 450V540V630Z"/>
</mask>
<path fill-rule="evenodd" clip-rule="evenodd" d="M1800 630C1800 679.706 1759.71 720 1710 720C1660.29 720 1620 679.706 1620 630V540V450C1620 400.294 1660.29 360 1710 360C1759.71 360 1800 400.294 1800 450V540V630Z" fill="#500085"/>
<path d="M1622 540V630H1618V540H1622ZM1622 450V540H1618V450H1622ZM1798 540V450H1802V540H1798ZM1798 630V540H1802V630H1798ZM1710 358C1760.81 358 1802 399.19 1802 450H1798C1798 401.399 1758.6 362 1710 362V358ZM1618 450C1618 399.19 1659.19 358 1710 358V362C1661.4 362 1622 401.399 1622 450H1618ZM1710 718C1758.6 718 1798 678.601 1798 630H1802C1802 680.81 1760.81 722 1710 722V718ZM1710 722C1659.19 722 1618 680.81 1618 630H1622C1622 678.601 1661.4 718 1710 718V722Z" fill="#3E0066" mask="url(#path-6-inside-3_8703_8674)"/>
<rect x="181" y="541" width="178" height="178" rx="89" fill="#500085" stroke="#3E0066" stroke-width="2"/>
<mask id="path-9-inside-4_8703_8674" fill="white">
<path fill-rule="evenodd" clip-rule="evenodd" d="M540 90C540 40.2944 499.706 0 450 0C400.294 0 360 40.2944 360 90C360 139.706 319.706 180 270 180H180H90C40.2944 180 0 220.294 0 270C0 319.706 40.2944 360 90 360C139.706 360 180 400.294 180 450C180 499.706 220.294 540 270 540C319.706 540 360 499.706 360 450C360 400.294 400.294 360 450 360C499.706 360 540 319.706 540 270V180V90Z"/>
</mask>
<path fill-rule="evenodd" clip-rule="evenodd" d="M540 90C540 40.2944 499.706 0 450 0C400.294 0 360 40.2944 360 90C360 139.706 319.706 180 270 180H180H90C40.2944 180 0 220.294 0 270C0 319.706 40.2944 360 90 360C139.706 360 180 400.294 180 450C180 499.706 220.294 540 270 540C319.706 540 360 499.706 360 450C360 400.294 400.294 360 450 360C499.706 360 540 319.706 540 270V180V90Z" fill="#500085"/>
<path d="M270 178H180V182H270V178ZM180 178H90V182H180V178ZM542 270V180H538V270H542ZM538 90V180H542V90H538ZM450 362C500.81 362 542 320.81 542 270H538C538 318.601 498.601 358 450 358V362ZM362 450C362 401.399 401.399 362 450 362V358C399.19 358 358 399.19 358 450H362ZM270 542C320.81 542 362 500.81 362 450H358C358 498.601 318.601 538 270 538V542ZM178 450C178 500.81 219.19 542 270 542V538C221.399 538 182 498.601 182 450H178ZM90 362C138.601 362 178 401.399 178 450H182C182 399.19 140.81 358 90 358V362ZM90 178C39.1898 178 -2 219.19 -2 270H2C2 221.399 41.3989 182 90 182V178ZM358 90C358 138.601 318.601 178 270 178V182C320.81 182 362 140.81 362 90H358ZM450 2C498.601 2 538 41.3989 538 90H542C542 39.1898 500.81 -2 450 -2V2ZM-2 270C-2 320.81 39.1898 362 90 362V358C41.3989 358 2 318.601 2 270H-2ZM450 -2C399.19 -2 358 39.1898 358 90H362C362 41.3989 401.399 2 450 2V-2Z" fill="#3E0066" mask="url(#path-9-inside-4_8703_8674)"/>
</svg>
