<svg width="266" height="336" viewBox="0 0 266 336" fill="none" xmlns="http://www.w3.org/2000/svg">
<path d="M19 -0.000244133C8.50656 -0.000244137 9.62912e-07 8.50634 1.49596e-06 18.9998L1.33066e-05 251.5C1.38396e-05 261.993 8.5066 270.5 19 270.5L162.2 270.5C172.694 270.5 181.2 279.006 181.2 289.5L181.2 317C181.2 327.493 189.707 336 200.2 336L247.001 336C257.494 336 266.001 327.493 266.001 317L266.001 18.9998C266.001 8.50635 257.494 -0.000244033 247.001 -0.000244038L19 -0.000244133Z" fill="#79F5A7"/>
<g filter="url(#filter0_d_5702_623)">
<path d="M224.539 307.289L223.133 305.898L228.016 301.016H215.75V298.984H228.016L223.133 294.109L224.539 292.711L231.828 300L224.539 307.289Z" fill="white"/>
</g>
<defs>
<filter id="filter0_d_5702_623" x="205.75" y="282.711" width="36.0781" height="34.5781" filterUnits="userSpaceOnUse" color-interpolation-filters="sRGB">
<feFlood flood-opacity="0" result="BackgroundImageFix"/>
<feColorMatrix in="SourceAlpha" type="matrix" values="0 0 0 0 0 0 0 0 0 0 0 0 0 0 0 0 0 0 127 0" result="hardAlpha"/>
<feOffset/>
<feGaussianBlur stdDeviation="5"/>
<feComposite in2="hardAlpha" operator="out"/>
<feColorMatrix type="matrix" values="0 0 0 0 0 0 0 0 0 0 0 0 0 0 0 0 0 0 0.12 0"/>
<feBlend mode="normal" in2="BackgroundImageFix" result="effect1_dropShadow_5702_623"/>
<feBlend mode="normal" in="SourceGraphic" in2="effect1_dropShadow_5702_623" result="shape"/>
</filter>
</defs>
</svg>
