<svg width="870" height="568" viewBox="0 0 870 568" fill="none" xmlns="http://www.w3.org/2000/svg">
<path d="M899.811 328.43L981.586 328.432L1072.46 328.43C1117.01 328.428 1153.12 364.544 1153.12 409.093C1153.12 453.641 1117.01 489.756 1072.46 489.756L1063.36 489.756C1017.58 489.756 980.476 526.864 980.476 572.638C980.476 617.186 944.363 653.3 899.815 653.3L736.27 653.3C691.722 653.3 655.608 617.183 655.608 572.635C655.608 526.861 618.5 489.75 572.726 489.75C528.179 489.75 492.065 453.637 492.065 409.089C492.065 364.541 528.179 328.428 572.727 328.428C618.5 328.428 655.608 291.321 655.608 245.548C655.608 201.001 691.723 164.888 736.27 164.888C780.818 164.888 816.932 201.001 816.932 245.549C816.932 291.322 854.038 328.428 899.811 328.43Z" fill="#123B1F" stroke="#102D19" stroke-width="2.21952"/>
<path d="M245.772 328.11L409.228 328.11C453.772 328.11 489.89 364.448 489.89 409C489.89 453.553 453.772 489.89 409.228 489.89L382 489.89L273 489.89L245.772 489.89C201.227 489.89 165.11 453.552 165.11 409C165.11 364.448 201.227 328.11 245.772 328.11Z" fill="#123B1F" stroke="#102D19" stroke-width="2.21952"/>
<path d="M1.10984 572.638L1.10979 736.182C1.10977 780.731 37.2234 816.844 81.7719 816.844L245.315 816.844C289.864 816.844 325.977 780.731 325.977 736.182C325.977 691.634 289.864 655.52 245.315 655.52C199.541 655.52 162.433 618.413 162.433 572.638C162.433 528.09 126.32 491.976 81.7716 491.976C37.2234 491.976 1.10986 528.09 1.10984 572.638Z" fill="#123B1F" stroke="#102D19" stroke-width="2.21952"/>
<path d="M572.405 491.977L490.633 491.977L245.317 491.977C200.769 491.977 164.655 528.09 164.655 572.639C164.655 617.187 200.769 653.301 245.317 653.301L408.861 653.301C454.635 653.301 491.743 690.408 491.743 736.182C491.743 780.731 527.856 816.844 572.405 816.844L654.177 816.844L735.949 816.844C780.497 816.844 816.611 780.731 816.611 736.182C816.611 691.634 780.497 655.52 735.949 655.52C690.175 655.52 653.067 618.413 653.067 572.639C653.067 528.09 616.954 491.977 572.405 491.977Z" fill="#123B1F" stroke="#102D19" stroke-width="2.21952"/>
<path d="M980.483 245.316L980.483 163.544L980.483 81.7722C980.483 37.2238 944.369 1.11019 899.821 1.11019C855.272 1.1102 819.159 37.2238 819.159 81.7722L819.159 163.544L819.159 245.316C819.159 289.865 855.272 325.978 899.821 325.978C944.369 325.978 980.483 289.865 980.483 245.316Z" fill="#123B1F" stroke="#102D19" stroke-width="2.21952"/>
</svg>
