<svg width="717" height="296" viewBox="0 0 717 296" fill="none" xmlns="http://www.w3.org/2000/svg">
<g clip-path="url(#clip0_2001_42)">
<path fill-rule="evenodd" clip-rule="evenodd" d="M1.12286 1.74243H198.223V222.348H1.12286V1.74243Z" fill="#1B4E9B"/>
<path fill-rule="evenodd" clip-rule="evenodd" d="M135.553 123.971L78.2832 66.8958L78.4487 40.6756C78.8067 38.3387 77.7623 35.1729 73.3402 35.7572L35.7314 36.2526L35.1343 73.9788C35.1006 76.4483 36.2562 78.3747 39.6145 78.4018L66.4389 78.6051L149.628 162.049L165.673 162.041C165.593 157.818 162.261 147.578 154.729 140.355L161.572 133.364L159.097 130.876L157.295 132.641L155.341 130.742L157.955 128.14L154.112 124.282L148.683 129.638L145.194 126.12L149.211 122.018L143.355 116.206L135.553 123.971Z" fill="#D4EDFC"/>
<path fill-rule="evenodd" clip-rule="evenodd" d="M52.0844 52.7028C46.4202 58.4886 42.974 63.3736 39.9674 69.0333L50.912 70.7616C58.0874 60.6325 61.7106 57.0653 70.9593 51.2383L68.979 40.3835C62.1979 43.7384 56.8839 47.9285 52.0831 52.7028H52.0844Z" fill="#1B4E9B"/>
<path fill-rule="evenodd" clip-rule="evenodd" d="M65.3234 123.799L122.593 66.7246L122.429 40.5032C122.069 38.1675 123.113 35.0018 127.535 35.5912L165.145 36.0815L165.75 73.805C165.775 76.2694 164.625 78.201 161.26 78.2358L134.439 78.4327L50.9831 162.001L35.2028 161.862C35.2829 157.773 38.7394 147.404 46.1461 140.184L39.3042 133.185L41.7796 130.695L43.5815 132.476L45.536 130.569L42.921 127.968L46.7665 124.109L52.193 129.456L55.683 125.949L51.6669 121.852L57.5237 116.033L65.3234 123.798V123.799Z" fill="#D4EDFC"/>
<path fill-rule="evenodd" clip-rule="evenodd" d="M148.575 52.7491C154.238 58.5349 157.682 63.4186 160.681 69.0809L149.738 70.8143C142.57 60.6789 138.946 57.1104 129.697 51.2859L131.671 40.4363C138.46 43.786 143.767 47.9761 148.576 52.7491H148.575Z" fill="#1B4E9B"/>
<path fill-rule="evenodd" clip-rule="evenodd" d="M152.515 112.221C164.091 114.035 169.197 118.628 174.392 123.641C179.392 110.116 179.591 90.694 174.563 76.3698C166.664 84.8362 158.326 86.8154 152.268 87.7149C129.01 88.8538 112.306 73.2247 112.744 49.8768C113.616 39.457 118.462 31.1425 124.706 25.7479C108.615 20.258 91.8325 20.2336 75.6683 25.4017C82.2309 30.5132 87.3846 39.2112 88.155 50.1548C88.8258 66.9292 80.9602 73.5541 77.9213 77.6528C64.5026 90.2372 50.3924 88.5681 42.4932 86.6365C33.7357 83.9701 27.8762 78.295 25.1113 75.2772C20.0119 90.1921 19.9576 108.628 25.1901 124.006C29.1275 119.523 37.2464 112.904 49.706 112.064C83.9669 110.315 101.338 151.37 75.972 174.17C91.7433 179.175 108.101 179.673 123.908 173.707C108.706 160.209 108.6 137.119 122.868 122.464C130.27 114.077 142.918 111.355 152.512 112.222L152.515 112.221Z" fill="#FEFEFE"/>
<path fill-rule="evenodd" clip-rule="evenodd" d="M117.042 100.106L109.329 102.529L108.63 104.093L108.132 105.218L110.06 109.964L104.925 108.291L102.7 109.309L99.9993 116.101L97.6131 109.327L94.98 108.304L90.3705 109.652L91.9398 105.357L90.8695 102.74L83.1952 100.106L90.7893 97.5582L91.9023 95.1157L90.4235 90.5679L95.1119 92.0105L97.4916 90.9849L100.033 83.6098L102.618 91.0363L104.925 91.82L109.795 90.5216L108.099 95.1299L109.182 97.3189L117.042 100.106Z" fill="#1B4E9B"/>
<path fill-rule="evenodd" clip-rule="evenodd" d="M716.681 223.441C715.59 223.599 714.811 223.685 714.319 223.685C712.931 223.685 711.951 223.381 711.381 222.771C710.81 222.161 710.523 221.111 710.523 219.628V207.243H707.912V204.661H710.523V199.393H713.695V204.661H716.681V207.243H713.695V219.628L714.194 220.628L715.555 220.999H716.68V223.442L716.681 223.441ZM689.566 223.461V204.66H691.068H692.584V207.442L693.289 206.501C694.659 204.906 696.393 204.098 698.462 204.098C700.536 204.098 702.147 204.66 703.283 205.778C704.408 206.909 704.979 208.499 704.979 210.578V223.461H703.389H701.8V211.65C701.8 209.998 701.48 208.806 700.835 208.077C700.196 207.342 699.16 206.971 697.714 206.971C696.194 206.971 694.969 207.548 694.085 208.707C693.188 209.856 692.74 211.42 692.74 213.391L692.742 223.461H691.153H689.563H689.566ZM682.363 212.618C682.277 210.877 681.839 209.519 681.067 208.539C680.209 207.468 678.952 206.93 677.29 206.93C675.622 206.93 674.283 207.546 673.285 208.784C672.497 209.765 672.022 211.034 671.857 212.618H682.363ZM677.071 223.971C674.405 223.971 672.316 223.123 670.788 221.441C669.251 219.752 668.486 217.422 668.486 214.443C668.488 211.28 669.296 208.763 670.915 206.895C672.53 205.029 674.705 204.095 677.422 204.095C679.897 204.095 681.892 205.009 683.414 206.836C684.924 208.662 685.682 211.066 685.682 214.039L685.647 215.165H671.857C671.984 217.037 672.423 218.467 673.147 219.454C674.039 220.646 675.448 221.241 677.383 221.241C678.586 221.241 679.649 220.903 680.554 220.221C681.459 219.545 682.01 218.679 682.203 217.621H685.348C684.875 219.686 683.939 221.254 682.52 222.34C681.112 223.424 679.29 223.97 677.069 223.97L677.071 223.971ZM639.209 223.461V204.66H640.706H642.23V207.455L642.882 206.607C644.303 204.939 645.999 204.098 647.975 204.098C649.67 204.098 651.02 204.594 652.017 205.594L653.061 207.117L653.572 206.467C654.93 204.89 656.557 204.098 658.454 204.098C660.437 204.098 661.963 204.626 663.043 205.706C664.119 206.779 664.652 208.295 664.652 210.263V223.463H663.071H661.48V211.343C661.48 209.898 661.188 208.826 660.596 208.084C660.009 207.348 659.152 206.972 658.021 206.972C656.645 206.972 655.548 207.509 654.737 208.582C653.927 209.64 653.515 211.092 653.515 212.9V223.465H651.931H650.343V210.582C650.343 209.41 650.081 208.517 649.542 207.908C649.006 207.285 648.227 206.974 647.204 206.974C645.796 206.974 644.637 207.576 643.727 208.768C642.843 209.967 642.383 211.51 642.383 213.394L642.384 223.464H640.8H639.209V223.461ZM632.009 212.618C631.908 210.877 631.483 209.519 630.699 208.539C629.847 207.468 628.584 206.93 626.929 206.93C625.267 206.93 623.923 207.546 622.925 208.784C622.136 209.765 621.662 211.034 621.503 212.618H632.009ZM626.716 223.971C624.044 223.971 621.948 223.123 620.42 221.441C618.891 219.752 618.132 217.422 618.132 214.443C618.132 211.28 618.936 208.763 620.552 206.895C622.17 205.029 624.342 204.095 627.069 204.095C629.544 204.095 631.536 205.009 633.054 206.836C634.571 208.662 635.334 211.066 635.334 214.039L635.289 215.165H621.503C621.631 217.037 622.06 218.467 622.786 219.454C623.684 220.646 625.093 221.241 627.028 221.241C628.232 221.241 629.281 220.903 630.193 220.221C631.098 219.545 631.649 218.679 631.856 217.621H634.994C634.516 219.686 633.577 221.254 632.167 222.34C630.753 223.424 628.935 223.97 626.715 223.97L626.716 223.971ZM606.388 206.97C604.615 206.97 603.303 207.54 602.498 208.658C601.682 209.789 601.27 211.57 601.27 214.019C601.27 216.329 601.709 218.112 602.598 219.356C603.498 220.606 604.753 221.229 606.388 221.229C607.932 221.229 609.169 220.647 610.106 219.508C611.052 218.356 611.515 216.84 611.515 214.954C611.517 212.291 611.096 210.294 610.239 208.97C609.39 207.637 608.097 206.97 606.388 206.97ZM605.772 228.776C607.593 228.776 608.974 228.201 609.934 227.07C610.885 225.918 611.362 224.262 611.362 222.07L611.364 221.455L611.351 221.476C610.032 223.131 608.329 223.972 606.222 223.972C603.689 223.972 601.681 223.024 600.19 221.151C598.69 219.263 597.949 216.736 597.949 213.532C597.95 210.712 598.68 208.434 600.15 206.701C601.62 204.965 603.55 204.099 605.917 204.099C608.197 204.099 609.991 205.078 611.322 207.032L611.556 207.369V204.661H614.533V222.071C614.52 225.249 613.801 227.587 612.38 229.116C610.956 230.638 608.768 231.399 605.822 231.399C603.676 231.399 601.979 230.902 600.715 229.923C599.459 228.936 598.701 227.512 598.443 225.64H601.687C601.873 226.646 602.332 227.413 603.035 227.963C603.749 228.505 604.659 228.776 605.77 228.776H605.772ZM590.232 216.013V213.976C589.64 214.259 588.987 214.444 588.277 214.557L585.359 214.974C583.837 215.18 582.718 215.532 582.007 216.04C581.309 216.529 580.956 217.212 580.956 218.058C580.957 219.118 581.236 219.926 581.821 220.496C582.393 221.065 583.209 221.349 584.268 221.349C585.936 221.349 587.348 220.9 588.505 219.992C589.296 219.363 589.813 218.648 590.073 217.854L590.174 217.131L590.234 216.013H590.232ZM583.647 223.971C581.792 223.971 580.336 223.482 579.26 222.494C578.169 221.506 577.624 220.177 577.624 218.508C577.625 216.821 578.142 215.477 579.153 214.484C580.173 213.485 581.659 212.861 583.608 212.618L587.937 212.081L588.942 211.903L589.893 211.268L590.233 210.076V209.912C590.233 208.903 589.853 208.123 589.089 207.548C588.327 206.979 587.252 206.701 585.891 206.701C584.588 206.701 583.563 206.997 582.825 207.607C582.094 208.203 581.648 209.104 581.489 210.295H578.571C578.717 208.236 579.453 206.688 580.751 205.655C582.055 204.615 583.936 204.099 586.363 204.099C588.663 204.099 590.404 204.596 591.609 205.589C592.799 206.576 593.397 208.019 593.397 209.912L593.399 220.245L593.688 221.012L594.481 221.303L594.9 221.263L595.493 221.163V223.446L594.522 223.716L593.657 223.824C592.454 223.824 591.588 223.499 591.042 222.844C590.692 222.406 590.437 221.8 590.286 220.997L589.476 221.837C587.886 223.254 585.944 223.97 583.649 223.97L583.647 223.971ZM558.499 223.461V204.66H559.996H561.514V207.442L562.22 206.501C563.595 204.906 565.317 204.098 567.383 204.098C569.467 204.098 571.075 204.66 572.211 205.778C573.336 206.909 573.9 208.499 573.9 210.578L573.902 223.461H572.32H570.729V211.65C570.729 209.998 570.408 208.806 569.763 208.077C569.126 207.342 568.083 206.971 566.645 206.971C565.116 206.971 563.904 207.548 563.007 208.707C562.11 209.856 561.662 211.42 561.662 213.391L561.665 223.461H560.088H558.497H558.499ZM549.87 216.013V213.976C549.286 214.259 548.625 214.444 547.915 214.557L544.998 214.974C543.48 215.18 542.357 215.532 541.658 216.04C540.948 216.529 540.595 217.212 540.595 218.058C540.595 219.118 540.882 219.926 541.459 220.496C542.031 221.065 542.848 221.349 543.912 221.349C545.587 221.349 546.992 220.9 548.143 219.992C548.934 219.363 549.467 218.648 549.719 217.854L549.826 217.131L549.872 216.013H549.87ZM543.294 223.971C541.446 223.971 539.976 223.482 538.898 222.494C537.823 221.506 537.275 220.177 537.275 218.508C537.276 216.821 537.781 215.477 538.805 214.484C539.816 213.485 541.305 212.861 543.253 212.618L547.575 212.081L548.581 211.903L549.532 211.268L549.871 210.076V209.912C549.871 208.903 549.491 208.123 548.727 207.548C547.964 206.979 546.898 206.701 545.536 206.701C544.225 206.701 543.209 206.997 542.463 207.607C541.731 208.203 541.287 209.104 541.139 210.295H538.209C538.362 208.236 539.093 206.688 540.404 205.655C541.708 204.615 543.573 204.099 546.006 204.099C548.302 204.099 550.044 204.596 551.246 205.589C552.452 206.576 553.048 208.019 553.048 209.912L553.05 220.245L553.337 221.012L554.128 221.303L554.546 221.263L555.136 221.163V223.446L554.16 223.716L553.294 223.824C552.092 223.824 551.232 223.499 550.688 222.844C550.33 222.406 550.075 221.8 549.931 220.997L549.115 221.837C547.53 223.254 545.589 223.97 543.296 223.97L543.294 223.971ZM511.834 223.461H510.141H508.434V197.63H510.952H513.475L520.901 219.608H520.894L528.247 197.63H530.767H533.296V223.461H531.6H529.892V201.601H529.885L522.571 223.461H520.87H519.182L511.846 201.674H511.838V223.461H511.834ZM491.929 207.281V223.461H490.338H488.748V207.281H486.144V204.66H488.748V201.463C488.748 200.074 489.167 199.027 489.985 198.326C490.81 197.623 492.039 197.268 493.69 197.268L495.086 197.321V200.173L493.83 200.12C493.223 200.12 492.75 200.318 492.413 200.709C492.087 201.094 491.927 201.655 491.927 202.385L491.929 204.66H495.086V207.281H491.929ZM475.483 221.243C477.159 221.243 478.489 220.601 479.475 219.297C480.464 217.998 480.956 216.246 480.956 214.041C480.956 211.836 480.464 210.089 479.475 208.778C478.49 207.473 477.16 206.819 475.483 206.819C473.822 206.819 472.499 207.474 471.514 208.778C470.524 210.091 470.039 211.837 470.039 214.041C470.039 216.247 470.522 218.001 471.514 219.297C472.5 220.602 473.821 221.243 475.483 221.243ZM475.483 223.971C472.877 223.971 470.756 223.057 469.147 221.229C467.523 219.396 466.719 217.005 466.719 214.04C466.721 211.067 467.523 208.663 469.147 206.837C470.756 205.01 472.877 204.096 475.483 204.096C478.124 204.096 480.245 205.01 481.861 206.837C483.47 208.663 484.276 211.067 484.276 214.04C484.276 217.005 483.47 219.396 481.861 221.229C480.245 223.057 478.123 223.971 475.483 223.971ZM449.712 223.461V197.63H451.301H452.891V223.461H451.301H449.712ZM437.157 221.243C438.825 221.243 440.156 220.601 441.146 219.297C442.133 217.998 442.637 216.246 442.637 214.041C442.637 211.836 442.133 210.089 441.146 208.778C440.156 207.473 438.826 206.819 437.157 206.819C435.487 206.819 434.163 207.474 433.188 208.778C432.203 210.091 431.71 211.837 431.71 214.041C431.711 216.247 432.203 218.001 433.188 219.297C434.166 220.602 435.486 221.243 437.157 221.243ZM437.157 223.971C434.551 223.971 432.429 223.057 430.819 221.229C429.199 219.396 428.387 217.005 428.387 214.04C428.387 211.067 429.196 208.663 430.819 206.837C432.43 205.01 434.551 204.096 437.157 204.096C439.803 204.096 441.918 205.01 443.534 206.837C445.144 208.663 445.947 211.067 445.947 214.04C445.948 217.005 445.142 219.396 443.534 221.229C441.918 223.057 439.803 223.971 437.157 223.971ZM416.983 221.243C418.652 221.243 419.974 220.601 420.966 219.297C421.957 217.998 422.447 216.246 422.447 214.041C422.45 211.836 421.956 210.089 420.966 208.778C419.974 207.473 418.652 206.819 416.981 206.819C415.316 206.819 413.99 207.474 413.006 208.778C412.021 210.091 411.53 211.837 411.53 214.041C411.53 216.247 412.021 218.001 413.006 219.297C413.99 220.602 415.312 221.243 416.983 221.243ZM416.983 223.971C414.371 223.971 412.254 223.057 410.638 221.229C409.017 219.396 408.21 217.005 408.21 214.04C408.21 211.067 409.014 208.663 410.638 206.837C412.254 205.01 414.368 204.096 416.981 204.096C419.623 204.096 421.736 205.01 423.352 206.837C424.963 208.663 425.767 211.067 425.767 214.04C425.767 217.005 424.963 219.396 423.352 221.229C421.736 223.057 419.622 223.971 416.983 223.971ZM389.116 223.461V197.63H390.704H392.288V207.209L392.832 206.501C394.21 204.906 395.937 204.098 398.005 204.098C400.08 204.098 401.695 204.66 402.827 205.778C403.95 206.909 404.515 208.499 404.515 210.578L404.517 223.461H402.931H401.344V211.374C401.344 209.811 401.043 208.693 400.438 208.005C399.847 207.315 398.869 206.97 397.513 206.97C395.911 206.97 394.64 207.546 393.695 208.706C392.758 209.855 392.286 211.419 392.286 213.39L392.288 223.46H390.704H389.116V223.461ZM385.858 216.695C385.53 219.064 384.686 220.866 383.335 222.105C381.982 223.342 380.177 223.972 377.929 223.972C375.423 223.972 373.421 223.076 371.932 221.283C370.444 219.489 369.69 217.074 369.69 214.041C369.69 211.008 370.461 208.599 372.01 206.8C373.554 204.998 375.635 204.098 378.247 204.098C380.516 204.098 382.337 204.713 383.687 205.952C385.036 207.19 385.755 208.89 385.854 211.056H382.804C382.676 209.706 382.198 208.665 381.394 207.931C380.578 207.189 379.497 206.818 378.143 206.818C376.548 206.818 375.283 207.46 374.379 208.746C373.469 210.022 373.01 211.792 373.01 214.041C373.01 216.43 373.43 218.231 374.28 219.436C375.124 220.642 376.387 221.244 378.057 221.244C379.288 221.244 380.323 220.853 381.156 220.06C381.987 219.265 382.531 218.145 382.805 216.696L385.858 216.695ZM362.975 205.117C362.83 203.495 362.184 202.232 361.053 201.351C359.91 200.471 358.388 200.027 356.472 200.027C354.499 200.027 353 200.406 351.976 201.173C350.958 201.925 350.446 203.045 350.446 204.502C350.447 205.502 350.779 206.251 351.464 206.733C352.151 207.23 353.518 207.712 355.572 208.196L360.089 209.267C362.51 209.838 364.238 210.684 365.275 211.803C366.314 212.922 366.832 214.505 366.832 216.537C366.832 218.88 365.94 220.734 364.159 222.104C362.378 223.478 359.963 224.161 356.918 224.161C353.527 224.161 350.88 223.369 348.971 221.792C347.111 220.229 346.185 218.099 346.185 215.39V215.198H349.412C349.472 217.073 350.15 218.521 351.458 219.534C352.763 220.553 354.585 221.064 356.918 221.064C359.066 221.064 360.7 220.692 361.826 219.951C362.941 219.222 363.493 218.137 363.493 216.714C363.493 215.47 363.128 214.55 362.397 213.954C361.667 213.372 360.195 212.808 357.98 212.28L353.461 211.213C351.175 210.671 349.545 209.923 348.565 208.963C347.594 208.005 347.111 206.68 347.111 204.978C347.111 202.507 347.955 200.55 349.636 199.101C351.327 197.658 353.606 196.93 356.473 196.93C359.392 196.93 361.719 197.658 363.442 199.106C365.17 200.563 366.088 202.562 366.207 205.119L362.976 205.117H362.975ZM325.062 223.461V204.66H326.565H328.082V207.876L328.944 206.507C330.141 204.906 331.623 204.098 333.371 204.098L334.271 204.248V207.494L333.626 207.472C331.904 207.472 330.573 207.983 329.641 209.01C328.704 210.029 328.24 211.498 328.24 213.39V223.46H326.65H325.061L325.062 223.461ZM317.428 212.618C317.329 210.877 316.891 209.519 316.119 208.539C315.261 207.468 314.004 206.93 312.342 206.93C310.682 206.93 309.343 207.546 308.345 208.784C307.554 209.765 307.074 211.034 306.915 212.618H317.428ZM312.131 223.971C309.464 223.971 307.368 223.123 305.839 221.441C304.308 219.752 303.546 217.422 303.546 214.443C303.546 211.28 304.348 208.763 305.972 206.895C307.589 205.029 309.754 204.095 312.481 204.095C314.957 204.095 316.95 205.009 318.466 206.836C319.989 208.662 320.739 211.066 320.739 214.039L320.706 215.165H306.915C307.043 217.037 307.473 218.467 308.207 219.454C309.096 220.646 310.505 221.241 312.441 221.241C313.645 221.241 314.701 220.903 315.612 220.221C316.517 219.545 317.069 218.679 317.268 217.621H320.406C319.936 219.686 318.998 221.254 317.581 222.34C316.172 223.424 314.356 223.97 312.13 223.97L312.131 223.971ZM296.404 197.628H299.65V201.218H296.404V197.628ZM296.439 223.46V204.659H298.035H299.617V223.46H298.035H296.439ZM276.124 204.659H277.979H279.835L284.894 220.05H284.888L290.128 204.659H291.862H293.626L286.582 223.46H284.894H283.187L276.125 204.659H276.124ZM269.568 216.012V213.974C268.976 214.257 268.324 214.443 267.607 214.556L264.695 214.973C263.172 215.179 262.049 215.53 261.343 216.039C260.645 216.528 260.287 217.211 260.287 218.056C260.287 219.117 260.579 219.925 261.157 220.495C261.723 221.064 262.546 221.348 263.604 221.348C265.274 221.348 266.684 220.899 267.839 219.991C268.625 219.361 269.158 218.647 269.41 217.853L269.517 217.13L269.57 216.012H269.568ZM262.986 223.97C261.137 223.97 259.673 223.481 258.597 222.492C257.514 221.505 256.966 220.176 256.966 218.507C256.967 216.82 257.47 215.476 258.489 214.483C259.515 213.484 260.996 212.86 262.944 212.617L267.275 212.08L268.28 211.901L269.23 211.267L269.569 210.075V209.91C269.569 208.902 269.19 208.122 268.425 207.546C267.661 206.978 266.59 206.7 265.219 206.7C263.916 206.7 262.9 206.996 262.162 207.606C261.423 208.201 260.978 209.102 260.831 210.294H257.906C258.053 208.235 258.79 206.687 260.094 205.653C261.4 204.614 263.265 204.098 265.705 204.098C267.998 204.098 269.742 204.594 270.938 205.588C272.145 206.575 272.74 208.017 272.74 209.91L272.742 220.244L273.035 221.011L273.82 221.302L274.239 221.262L274.824 221.162V223.445L273.859 223.715L272.987 223.823C271.79 223.823 270.925 223.497 270.381 222.842C270.03 222.405 269.776 221.799 269.623 220.996L268.814 221.836C267.223 223.253 265.281 223.968 262.988 223.968L262.986 223.97ZM232.167 223.46L241.374 210.556L232.749 197.627H234.924H237.092L243.458 207.709L250.292 197.627H252.394H254.515L245.431 210.33L254.887 223.459H252.739H250.591L243.468 213.059L236.421 223.459H234.301H232.167V223.46Z" fill="#9D9E9E"/>
<path fill-rule="evenodd" clip-rule="evenodd" d="M188.364 231.385H190.046L193.242 238.188L196.44 231.385H198.123L194 239.726V244.987H192.484V239.726L188.363 231.385H188.364ZM179.401 231.383H188.031V232.752H184.468V244.986H182.957V232.752H179.401V231.383ZM175.858 231.382H177.368V244.984H175.858V231.382ZM170.991 235.174C170.991 233.558 170.032 232.751 168.126 232.751H166.004V237.67H168.378C170.121 237.67 170.99 236.836 170.991 235.173V235.174ZM173.159 244.984H171.365C171.198 244.369 171.077 243.813 171.024 243.316L170.937 241.794C170.937 240.834 170.724 240.133 170.305 239.696C169.886 239.251 169.313 239.034 168.59 239.034H166.004V244.984H164.487V231.382H168.078C169.787 231.382 170.971 231.706 171.595 232.341C172.228 232.991 172.539 233.871 172.539 235.017C172.541 236.904 171.656 237.988 169.88 238.267C170.812 238.385 171.437 238.645 171.768 239.034C172.111 239.417 172.294 239.987 172.327 240.749C172.35 241.43 172.448 242.409 172.62 243.692C172.726 244.302 172.906 244.62 173.158 244.66L173.159 244.984ZM156.982 239.332V237.968H161.476V245.123H160.319V242.925C159.88 244.529 158.821 245.336 157.154 245.336C155.738 245.336 154.654 244.8 153.916 243.735C153.173 242.661 152.799 240.868 152.799 238.353C152.8 235.764 153.165 233.89 153.903 232.751C154.642 231.599 155.771 231.031 157.288 231.031C158.578 231.031 159.581 231.409 160.292 232.176C161.006 232.924 161.357 233.963 161.357 235.281H159.8C159.726 233.353 158.876 232.396 157.247 232.396C156.224 232.396 155.486 232.84 155.039 233.714C154.589 234.594 154.36 236.155 154.36 238.412C154.362 240.545 154.585 242.008 155.039 242.8C155.486 243.582 156.204 243.974 157.18 243.974C158.258 243.971 158.989 243.542 159.374 242.695C159.775 241.847 159.961 240.73 159.961 239.332H156.983H156.982ZM144.043 244.984V231.382H150.819V232.751H145.553V237.246H150.493V238.609H145.553V243.619H150.864V244.983H144.043V244.984ZM133.883 231.381H142.508V232.75H138.95V244.983H137.44V232.75H133.883V231.381ZM123.866 231.379H126.348L130.698 243.705V231.379H132.205V244.982H129.727L125.377 232.603V244.982H123.866V231.379ZM119.209 231.378H120.725V244.98H119.209V231.378ZM106.063 236.454L107.253 235.344L107.626 234.1L107.273 233.021L106.32 232.589L105.357 233.021L104.984 234.027C104.984 234.656 105.344 235.463 106.062 236.455L106.063 236.454ZM105.545 238.303C104.852 238.771 104.359 239.256 104.075 239.745C103.783 240.228 103.634 240.785 103.634 241.426C103.637 242.241 103.873 242.862 104.353 243.3C104.834 243.745 105.497 243.97 106.341 243.97C107.299 243.968 108.023 243.546 108.515 242.697L105.545 238.303ZM104.898 237.268C104.027 236.137 103.588 235.118 103.588 234.211C103.589 233.384 103.834 232.707 104.327 232.179C104.826 231.643 105.463 231.378 106.243 231.378C107.107 231.378 107.805 231.635 108.316 232.145C108.849 232.655 109.107 233.31 109.107 234.099C109.108 235.282 108.302 236.414 106.686 237.487L109.314 241.3L109.706 239.87L109.84 238.745H111.178C111.157 239.361 111.043 240.031 110.857 240.763C110.672 241.493 110.457 242.089 110.205 242.525L112.03 245.046H110.192L109.315 243.816C108.577 244.829 107.539 245.332 106.203 245.332C104.884 245.332 103.862 244.988 103.149 244.287C102.432 243.591 102.079 242.606 102.079 241.333C102.08 240.474 102.291 239.752 102.712 239.148C103.133 238.554 103.854 237.931 104.9 237.268H104.898ZM88.389 244.98V231.378H95.1649V232.747H89.9052V237.242H94.8404V238.605H89.9052V243.615H95.2127V244.979H88.389V244.98ZM84.577 240.095H86.1359L85.9873 241.709C85.8813 242.795 85.4896 243.663 84.811 244.333C84.1324 245.001 83.2534 245.332 82.1779 245.332C80.663 245.332 79.572 244.803 78.8921 243.744C78.2212 242.685 77.8877 241.122 77.8877 239.07L77.889 238.063C77.889 235.687 78.2341 233.913 78.9386 232.76C79.6379 231.603 80.7276 231.027 82.2025 231.027C83.3865 231.027 84.3366 231.397 85.0488 232.137C85.7727 232.886 86.1321 233.846 86.1321 235.025L86.1333 235.416H84.5744C84.5034 233.397 83.6774 232.391 82.1094 232.391C81.2653 232.391 80.6126 232.8 80.1472 233.615C79.6767 234.442 79.4414 236.124 79.4414 238.679C79.444 240.434 79.6547 241.752 80.0735 242.645C80.5001 243.525 81.1645 243.97 82.0887 243.97C83.4783 243.968 84.2694 243.03 84.4607 241.149L84.5744 240.097L84.577 240.095ZM67.19 231.376H69.6705L74.0163 243.701V231.376H75.5339V244.978H73.0533L68.7049 232.599V244.978H67.19V231.376ZM58.0331 244.978V231.376H64.7999V232.745H59.5351V237.24H64.4742V238.603H59.5351V243.612H64.8478V244.977H58.0331V244.978ZM49.0946 231.374H50.6044V243.612H56.151V244.977H49.0946V231.374ZM39.9791 231.373H41.494V243.611H47.0471V244.975H39.9791V231.373ZM30.7019 244.975V231.373H37.4843V232.742H32.2195V237.237H37.1521V238.6H32.2195V243.61H37.5321V244.974H30.7019V244.975ZM26.8913 240.09H28.4489L28.3067 241.704C28.1955 242.79 27.8013 243.657 27.1227 244.328C26.4453 244.996 25.5676 245.327 24.4896 245.327C22.9759 245.327 21.8837 244.798 21.2128 243.739C20.5406 242.679 20.202 241.117 20.202 239.065V238.058C20.202 235.681 20.5548 233.908 21.2503 232.755C21.9509 231.598 23.0393 231.022 24.5154 231.022C25.7008 231.022 26.6508 231.392 27.3605 232.132C28.0869 232.881 28.4437 233.841 28.4437 235.02L28.4463 235.411H26.8887C26.8163 233.392 25.9916 232.386 24.4211 232.386C23.5847 232.386 22.9242 232.795 22.4602 233.61C21.9909 234.437 21.7544 236.119 21.7544 238.673C21.7557 240.429 21.9612 241.746 22.3878 242.64C22.8143 243.52 23.4839 243.965 24.4081 243.965C25.7913 243.962 26.5836 243.024 26.7814 241.144L26.8887 240.092L26.8913 240.09ZM9.41634 244.975L13.28 238.011L9.53009 231.372H11.332L14.1654 236.685H14.1706L17.0118 231.372H18.8137L15.0664 238.011L18.9274 244.975H17.079L14.1719 239.29L11.2157 244.975H9.41892H9.41634ZM1.33746 244.975V231.373H8.11338V232.742H2.84724V237.237H7.78764V238.6H2.84724V243.61H8.15862V244.974H1.33746V244.975Z" fill="#1B4E9B"/>
<path fill-rule="evenodd" clip-rule="evenodd" d="M112.068 198.121C112.068 199.101 112.26 199.834 112.64 200.324C113.026 200.813 113.583 201.061 114.341 201.061C115.811 201.061 116.549 200.059 116.549 198.042C116.55 195.869 115.786 194.778 114.262 194.778C112.792 194.778 112.068 195.89 112.068 198.123V198.121ZM110.791 204.224H112.394C112.394 205.522 113.019 206.163 114.262 206.163C115.067 206.163 115.672 205.753 116.057 204.933C116.444 204.11 116.67 202.688 116.723 200.668C116.192 201.86 115.313 202.449 114.084 202.449C112.914 202.449 112.014 202.051 111.396 201.245C110.78 200.436 110.466 199.443 110.466 198.272C110.467 196.849 110.791 195.67 111.457 194.757C112.123 193.844 113.033 193.387 114.204 193.387C115.608 193.387 116.631 193.876 117.276 194.863C117.928 195.836 118.247 197.464 118.247 199.751C118.248 202.576 117.928 204.588 117.269 205.774C116.618 206.966 115.553 207.554 114.056 207.554C113.046 207.554 112.255 207.249 111.685 206.633C111.118 206.018 110.818 205.217 110.794 204.224H110.791ZM102.114 202.41H106.025V195.699L102.114 202.41ZM100.883 202.377L106.148 193.387H107.571V202.41H108.829V203.8H107.571V207.274H106.024V203.8H100.882V202.377H100.883ZM93.4495 198.121C93.4495 199.101 93.6409 199.834 94.0209 200.324C94.4074 200.813 94.9723 201.061 95.722 201.061C97.1943 201.061 97.9311 200.059 97.9311 198.042C97.9311 195.869 97.1723 194.778 95.6431 194.778C94.1812 194.778 93.4495 195.89 93.4495 198.123V198.121ZM92.1724 204.224H93.7753C93.7753 205.522 94.3996 206.163 95.6431 206.163C96.4562 206.163 97.0534 205.753 97.4463 204.933C97.8328 204.11 98.0513 202.688 98.1043 200.668C97.5795 201.86 96.7018 202.449 95.4647 202.449C94.3027 202.449 93.403 202.051 92.7787 201.245C92.1686 200.436 91.848 199.443 91.848 198.272C91.848 196.849 92.1802 195.67 92.8459 194.757C93.5051 193.844 94.4164 193.387 95.585 193.387C96.9887 193.387 98.0125 193.876 98.6653 194.863C99.3116 195.836 99.636 197.464 99.636 199.751C99.636 202.576 99.309 204.588 98.6511 205.774C97.9996 206.966 96.9345 207.554 95.4454 207.554C94.4294 207.554 93.6383 207.249 93.0721 206.633C92.5021 206.018 92.2022 205.217 92.175 204.224H92.1724ZM83.1952 195.957C84.3792 195.957 85.1962 195.765 85.6292 195.38C86.07 194.989 86.3479 194.328 86.4539 193.388H87.6573V207.275H86.101V197.147H83.1952V195.957Z" fill="#FEFEFE"/>
<path fill-rule="evenodd" clip-rule="evenodd" d="M709.016 272.462C707.299 272.462 706.049 273.003 705.251 274.097C704.461 275.181 704.066 276.91 704.066 279.281C704.066 281.512 704.488 283.226 705.344 284.437C706.202 285.642 707.426 286.252 709.015 286.252C710.486 286.252 711.683 285.697 712.593 284.576C713.497 283.472 713.947 282.003 713.947 280.175C713.949 277.704 713.522 275.806 712.665 274.468C711.816 273.132 710.59 272.464 709.016 272.464V272.462ZM708.835 288.845C706.402 288.845 704.467 287.939 703.022 286.137C701.587 284.323 700.862 281.882 700.862 278.803C700.863 276.089 701.559 273.891 702.956 272.224C704.352 270.556 706.162 269.714 708.408 269.714C710.637 269.713 712.405 270.66 713.707 272.542L713.947 272.885V263.499H715.479H716.999V288.364H715.59H714.167V285.893L713.775 286.45C712.525 288.052 710.876 288.846 708.835 288.846V288.845ZM690.15 286.23C691.761 286.23 693.04 285.601 693.985 284.351C694.943 283.099 695.416 281.411 695.416 279.292C695.416 277.174 694.943 275.487 693.985 274.23C693.04 272.97 691.757 272.342 690.15 272.342C688.547 272.342 687.27 272.97 686.327 274.23C685.375 275.487 684.903 277.174 684.903 279.292C684.903 281.411 685.375 283.099 686.327 284.351C687.27 285.601 688.547 286.23 690.15 286.23ZM690.15 288.845C687.637 288.845 685.601 287.971 684.045 286.211C682.489 284.449 681.704 282.147 681.704 279.292C681.705 276.428 682.489 274.117 684.045 272.355C685.601 270.594 687.635 269.714 690.15 269.714C692.695 269.713 694.731 270.594 696.286 272.355C697.828 274.114 698.606 276.427 698.606 279.292C698.606 282.145 697.828 284.449 696.286 286.211C694.73 287.971 692.695 288.845 690.15 288.845ZM670.992 286.23C672.603 286.23 673.885 285.601 674.835 284.351C675.78 283.099 676.258 281.411 676.258 279.292C676.258 277.174 675.78 275.487 674.835 274.23C673.885 272.97 672.601 272.342 670.992 272.342C669.389 272.342 668.115 272.97 667.162 274.23C666.226 275.487 665.748 277.174 665.748 279.292C665.748 281.411 666.226 283.099 667.162 284.351C668.115 285.601 669.391 286.23 670.992 286.23ZM670.992 288.845C668.472 288.845 666.443 287.971 664.888 286.211C663.326 284.449 662.554 282.147 662.554 279.292C662.555 276.428 663.326 274.117 664.888 272.355C666.443 270.594 668.472 269.714 670.992 269.714C673.533 269.713 675.575 270.594 677.128 272.355C678.678 274.114 679.448 276.427 679.448 279.292C679.451 282.145 678.678 284.449 677.128 286.211C675.573 287.971 673.532 288.845 670.992 288.845ZM651.684 272.489C649.975 272.489 648.725 273.031 647.946 274.11C647.15 275.195 646.756 276.918 646.756 279.274C646.757 281.499 647.182 283.214 648.039 284.41C648.899 285.61 650.106 286.212 651.683 286.212C653.168 286.212 654.363 285.655 655.267 284.558C656.177 283.445 656.625 281.99 656.625 280.175C656.625 277.614 656.216 275.694 655.399 274.41C654.576 273.132 653.339 272.49 651.683 272.49L651.684 272.489ZM651.092 293.479C652.848 293.479 654.176 292.93 655.102 291.832C656.013 290.733 656.477 289.137 656.477 287.032V286.429L656.459 286.45C655.201 288.052 653.559 288.846 651.529 288.846C649.09 288.846 647.155 287.94 645.718 286.139C644.281 284.324 643.555 281.883 643.555 278.805C643.558 276.091 644.269 273.893 645.684 272.225C647.101 270.557 648.948 269.716 651.236 269.716C653.432 269.714 655.159 270.661 656.437 272.543L656.662 272.867V270.265H659.527V287.028C659.514 290.079 658.829 292.336 657.46 293.806C656.092 295.269 653.983 296.004 651.143 296.004C649.076 296.004 647.439 295.528 646.228 294.587C645.018 293.633 644.287 292.264 644.032 290.457H647.16C647.338 291.432 647.77 292.172 648.455 292.7C649.149 293.224 650.018 293.48 651.09 293.48L651.092 293.479ZM625.885 288.362V270.264H627.327H628.791V273.356L629.614 272.038C630.771 270.489 632.194 269.716 633.889 269.716L634.754 269.867V272.984L634.123 272.971C632.466 272.971 631.19 273.455 630.293 274.449C629.388 275.433 628.935 276.845 628.935 278.672V288.362H627.415H625.885ZM618.804 277.923C618.703 276.243 618.291 274.938 617.538 273.997C616.723 272.965 615.505 272.449 613.907 272.449C612.307 272.448 611.017 273.038 610.052 274.235C609.294 275.176 608.834 276.401 608.681 277.923H618.804ZM613.711 288.845C611.131 288.845 609.114 288.037 607.645 286.41C606.161 284.786 605.437 282.542 605.437 279.684C605.437 276.638 606.207 274.214 607.77 272.415C609.328 270.621 611.414 269.714 614.041 269.714C616.422 269.713 618.337 270.594 619.806 272.355C621.263 274.114 621.994 276.427 621.994 279.292L621.961 280.379H608.683C608.802 282.178 609.219 283.555 609.917 284.503C610.782 285.647 612.133 286.229 614.002 286.229C615.166 286.229 616.175 285.898 617.052 285.243C617.918 284.593 618.455 283.761 618.65 282.74H621.662C621.215 284.724 620.311 286.24 618.947 287.281C617.593 288.328 615.843 288.844 613.71 288.844L613.711 288.845ZM603.502 288.343C602.465 288.5 601.708 288.581 601.229 288.581C599.898 288.581 598.954 288.283 598.401 287.701C597.852 287.11 597.578 286.104 597.578 284.669V272.745H595.06V270.262H597.578V265.184H600.637V270.262H603.502V272.745H600.637V284.669L601.116 285.635L602.42 285.992H603.502V288.343ZM588.794 281.187V279.228C588.228 279.5 587.603 279.684 586.911 279.783L584.106 280.195C582.643 280.393 581.558 280.736 580.886 281.214C580.21 281.698 579.862 282.348 579.862 283.167C579.862 284.18 580.142 284.961 580.694 285.511C581.246 286.06 582.037 286.33 583.06 286.33C584.663 286.33 586.021 285.892 587.135 285.026C587.888 284.417 588.4 283.728 588.646 282.961L588.745 282.265L588.793 281.187H588.794ZM582.457 288.845C580.682 288.845 579.272 288.375 578.235 287.429C577.189 286.481 576.672 285.198 576.672 283.591C576.672 281.968 577.156 280.678 578.141 279.717C579.119 278.756 580.548 278.154 582.431 277.923L586.592 277.407L587.557 277.23L588.475 276.62L588.794 275.476V275.322C588.794 274.35 588.434 273.595 587.697 273.046C586.965 272.496 585.935 272.226 584.612 272.226C583.362 272.225 582.375 272.509 581.666 273.099C580.962 273.683 580.529 274.541 580.382 275.694H577.569C577.717 273.709 578.419 272.213 579.671 271.219C580.929 270.22 582.736 269.717 585.077 269.717C587.285 269.716 588.965 270.199 590.122 271.153C591.274 272.107 591.85 273.496 591.85 275.324L591.853 285.266L592.131 286.007L592.888 286.28L593.288 286.253L593.862 286.146V288.346L592.93 288.616L592.092 288.723C590.934 288.723 590.104 288.404 589.576 287.776C589.239 287.351 588.992 286.763 588.845 285.995L588.068 286.803C586.538 288.172 584.667 288.848 582.455 288.848L582.457 288.845ZM571.007 277.923C570.921 276.243 570.501 274.938 569.757 273.997C568.926 272.965 567.716 272.449 566.125 272.449C564.515 272.448 563.225 273.038 562.267 274.235C561.512 275.176 561.045 276.401 560.892 277.923H571.007ZM565.914 288.845C563.347 288.845 561.33 288.037 559.848 286.41C558.379 284.786 557.647 282.542 557.647 279.684C557.647 276.638 558.423 274.214 559.981 272.415C561.532 270.621 563.632 269.714 566.251 269.714C568.632 269.713 570.553 270.594 572.016 272.355C573.473 274.114 574.197 276.427 574.197 279.292L574.172 280.379H560.891C561.02 282.178 561.43 283.555 562.128 284.503C562.987 285.647 564.351 286.229 566.21 286.229C567.374 286.229 568.39 285.898 569.263 285.243C570.134 284.593 570.665 283.761 570.858 282.74H573.878C573.427 284.724 572.522 286.24 571.158 287.281C569.81 288.328 568.053 288.844 565.914 288.844V288.845ZM547.541 288.362V270.264H548.991H550.445V273.356L551.277 272.038C552.428 270.489 553.861 269.716 555.546 269.716L556.403 269.867V272.984L555.785 272.971C554.125 272.971 552.847 273.455 551.955 274.449C551.058 275.433 550.599 276.845 550.599 278.672V288.362H549.07H547.541ZM535.214 272.489C533.51 272.489 532.253 273.031 531.469 274.11C530.68 275.195 530.285 276.918 530.285 279.274C530.285 281.499 530.718 283.214 531.575 284.41C532.427 285.61 533.637 286.212 535.213 286.212C536.702 286.212 537.894 285.655 538.804 284.558C539.708 283.445 540.161 281.99 540.161 280.175C540.161 277.614 539.747 275.694 538.929 274.41C538.113 273.132 536.867 272.49 535.214 272.49V272.489ZM534.619 293.479C536.376 293.479 537.706 292.93 538.629 291.832C539.55 290.733 540.004 289.137 540.004 287.032L540.007 286.429L539.986 286.45C538.729 288.052 537.094 288.846 535.064 288.846C532.625 288.846 530.69 287.94 529.245 286.139C527.811 284.324 527.09 281.883 527.09 278.805C527.093 276.091 527.796 273.893 529.212 272.225C530.636 270.557 532.478 269.716 534.771 269.716C536.959 269.714 538.687 270.661 539.964 272.543L540.192 272.867V270.265H543.064V287.028C543.051 290.079 542.357 292.336 540.982 293.806C539.619 295.269 537.51 296.004 534.67 296.004C532.604 296.004 530.967 295.528 529.757 294.587C528.548 293.633 527.814 292.264 527.567 290.457H530.69C530.873 291.432 531.305 292.172 531.99 292.7C532.669 293.224 533.548 293.48 534.617 293.48L534.619 293.479ZM513.37 277.923C513.281 276.243 512.863 274.938 512.111 273.997C511.295 272.965 510.078 272.449 508.48 272.449C506.877 272.448 505.59 273.038 504.624 274.235C503.874 275.176 503.407 276.401 503.254 277.923H513.37ZM508.282 288.845C505.71 288.845 503.694 288.037 502.217 286.41C500.744 284.786 500.01 282.542 500.01 279.684C500.01 276.638 500.78 274.214 502.35 272.415C503.9 270.621 505.994 269.714 508.62 269.714C511.002 269.713 512.915 270.594 514.378 272.355C515.836 274.114 516.567 276.427 516.567 279.292L516.529 280.379H503.255C503.376 282.178 503.8 283.555 504.491 284.503C505.349 285.647 506.713 286.229 508.573 286.229C509.737 286.229 510.747 285.898 511.625 285.243C512.498 284.593 513.035 283.761 513.223 282.74H516.242C515.79 284.724 514.884 286.24 513.528 287.281C512.173 288.328 510.407 288.844 508.282 288.844V288.845ZM481.725 288.362V263.497H483.256H484.777V272.713L485.303 272.029C486.627 270.488 488.287 269.714 490.288 269.714C492.289 269.713 493.839 270.262 494.923 271.342C496.006 272.428 496.561 273.963 496.561 275.957V288.362H495.032H493.503V276.719C493.503 275.222 493.209 274.144 492.63 273.475C492.053 272.818 491.12 272.489 489.809 272.489C488.262 272.489 487.045 273.043 486.145 274.157C485.23 275.267 484.777 276.77 484.777 278.671V288.361H483.256H481.725V288.362ZM478.919 288.343C477.873 288.5 477.13 288.581 476.644 288.581C475.309 288.581 474.372 288.283 473.818 287.701C473.267 287.11 472.992 286.104 472.992 284.669L472.995 272.745H470.48V270.262H472.995V265.184H476.055V270.262H478.919V272.745H476.055V284.669L476.533 285.635L477.835 285.992H478.919V288.343ZM453.001 288.362V270.264H454.45H455.907V273.356L456.738 272.038C457.895 270.489 459.308 269.716 461.005 269.716L461.87 269.867V272.984L461.239 272.971C459.584 272.971 458.312 273.455 457.407 274.449C456.51 275.433 456.053 276.845 456.053 278.672V288.362H454.531H453.001ZM440.824 286.23C442.435 286.23 443.717 285.601 444.667 284.351C445.612 283.099 446.098 281.411 446.098 279.292C446.098 277.174 445.612 275.487 444.667 274.23C443.717 272.97 442.434 272.342 440.824 272.342C439.224 272.342 437.947 272.97 436.994 274.23C436.052 275.487 435.58 277.174 435.58 279.292C435.58 281.411 436.051 283.099 436.994 284.351C437.947 285.601 439.223 286.23 440.824 286.23ZM440.824 288.845C438.312 288.845 436.276 287.971 434.721 286.211C433.158 284.449 432.386 282.147 432.386 279.292C432.386 276.428 433.158 274.117 434.721 272.355C436.278 270.594 438.312 269.714 440.824 269.714C443.366 269.713 445.407 270.594 446.962 272.355C448.505 274.114 449.288 276.427 449.288 279.292C449.291 282.145 448.505 284.449 446.962 286.211C445.405 287.971 443.364 288.845 440.824 288.845ZM414.835 288.362V263.497H432.128V264.988V266.476H418.216V274.07H430.393V275.553V277.043H418.216V288.362H416.535H414.835Z" fill="#1B4E9B"/>
<path fill-rule="evenodd" clip-rule="evenodd" d="M234.209 241.759H716.609V244.677H234.209V241.759Z" fill="#9D9E9E"/>
<path fill-rule="evenodd" clip-rule="evenodd" d="M682.902 54.2316L682.676 1.30103L716.569 27.7721L682.902 54.2316Z" fill="#BCCF17"/>
<path fill-rule="evenodd" clip-rule="evenodd" d="M508.178 149.704H445.58V2.63166H411.41L411.727 178.029H508.136L508.178 149.704ZM385.576 2.63166H344.911L309.988 59.7536L275.555 2.63166H234.888L291.276 91.3362L231.858 178.029H272.525L308.738 119.657L344.139 178.347H384.05L327.451 88.8139L385.579 2.63037L385.576 2.63166Z" fill="#9D9E9E"/>
<path fill-rule="evenodd" clip-rule="evenodd" d="M615.011 58.0511C614.973 64.1882 613.781 69.2714 611.501 73.3765C609.209 77.4482 606.108 80.6525 602.231 83.0088C598.316 85.3651 593.9 87.0727 588.96 88.0521C584.06 89.0661 578.912 89.5551 573.613 89.5165H562.827V29.032C565.813 28.6601 568.913 28.3422 572.136 28.1363C575.362 27.9317 578.466 27.8133 581.446 27.8133C585.289 27.7657 589.204 28.2573 593.089 29.2276C597.005 30.2017 600.636 31.8309 603.94 34.1473C607.213 36.4238 609.904 39.5162 611.905 43.4604C613.909 47.3597 614.973 52.2344 615.011 58.0511ZM655.919 178.047L617.705 107.806C624.361 104.959 630.079 101.306 634.894 96.7436C639.756 92.1958 643.471 86.7086 646.079 80.2471C648.698 73.8256 650.001 66.3386 650.041 57.8053C649.963 47.5244 648.166 38.7003 644.615 31.3844C641.06 24.0659 636.117 18.0948 629.873 13.4582C623.591 8.82669 616.354 5.41003 608.189 3.25837C599.983 1.06038 591.247 -0.0386154 581.938 -9.00481e-06C577.12 -9.00481e-06 572.178 0.126105 567.069 0.371899C562.013 0.616406 557.076 0.900806 552.296 1.26499C547.513 1.66907 543.106 2.03197 539.149 2.48367C535.187 2.88775 531.88 3.29697 529.268 3.66116L529.271 178.047H562.828V116.583H571.406C573.858 116.583 576.3 116.496 578.715 116.379C581.088 116.253 583.407 116.093 585.615 115.849L618.69 178.047H655.92H655.919Z" fill="#9D9E9E"/>
<path fill-rule="evenodd" clip-rule="evenodd" d="M716.508 177.736V37.6939L682.822 64.4327V177.736H716.508Z" fill="#9D9E9E"/>
</g>
<defs>
<clipPath id="clip0_2001_42">
<rect width="717" height="296" fill="white"/>
</clipPath>
</defs>
</svg>
